<svg width="100" height="100" viewBox="0 0 100 100" fill="none" xmlns="http://www.w3.org/2000/svg">
  <!-- Peacock body -->
  <path d="M65 25 Q75 35 80 50 Q85 65 75 75 Q65 85 50 80 Q35 75 30 60 Q25 45 35 35 Q45 25 65 25 Z" fill="#8A2BE2"/>
  
  <!-- Peacock feathers -->
  <ellipse cx="25" cy="20" rx="8" ry="15" fill="#FF1493" transform="rotate(-30 25 20)"/>
  <ellipse cx="4" cy="3" rx="2" ry="4" fill="white" transform="rotate(-30 25 20)"/>
  
  <ellipse cx="40" cy="15" rx="8" ry="15" fill="#00BFFF" transform="rotate(-10 40 15)"/>
  <ellipse cx="4" cy="3" rx="2" ry="4" fill="white" transform="rotate(-10 40 15)"/>
  
  <ellipse cx="55" cy="18" rx="8" ry="15" fill="#00CC66" transform="rotate(10 55 18)"/>
  <ellipse cx="4" cy="3" rx="2" ry="4" fill="white" transform="rotate(10 55 18)"/>
  
  <ellipse cx="70" cy="25" rx="6" ry="12" fill="#CC00CC" transform="rotate(30 70 25)"/>
  <ellipse cx="3" cy="2" rx="1.5" ry="3" fill="white" transform="rotate(30 70 25)"/>
  
  <ellipse cx="15" cy="45" rx="8" ry="15" fill="#FF8C00" transform="rotate(-60 15 45)"/>
  <ellipse cx="4" cy="3" rx="2" ry="4" fill="white" transform="rotate(-60 15 45)"/>
  
  <ellipse cx="25" cy="65" rx="8" ry="15" fill="#9ACD32" transform="rotate(-80 25 65)"/>
  <ellipse cx="4" cy="3" rx="2" ry="4" fill="white" transform="rotate(-80 25 65)"/>
  
  <ellipse cx="45" cy="75" rx="8" ry="15" fill="#00CED1" transform="rotate(-100 45 75)"/>
  <ellipse cx="4" cy="3" rx="2" ry="4" fill="white" transform="rotate(-100 45 75)"/>
  
  <!-- Peacock head -->
  <circle cx="75" cy="35" r="8" fill="#4B0082"/>
  <circle cx="77" cy="33" r="2" fill="white"/>
  <circle cx="77" cy="33" r="1" fill="black"/>
  
  <!-- Crown feathers -->
  <path d="M75 27 Q73 20 70 18 M75 27 Q75 18 75 15 M75 27 Q77 20 80 18" stroke="#8A2BE2" stroke-width="2" fill="none"/>
</svg>